<?xml version="1.0" ?>
<svg xmlns="http://www.w3.org/2000/svg" version="1.1" width="224" height="224">
  <defs/>
  <g>
    <path d="M 39.653907775878906 85.67346954345703 C 41.39219665527344 85.68389892578125 43.13123321533203 85.69507598876953 44.86952209472656 85.70625305175781 C 44.906028747558594 95.60175323486328 46.654747009277344 105.3556900024414 50.83692169189453 114.3712387084961 C 57.637332916259766 129.03231811523438 70.23824310302734 141.48867797851562 85.01853942871094 148.04248046875 C 101.537109375 155.36666870117188 121.65446472167969 155.54922485351562 138.33099365234375 148.61097717285156 C 146.07244873046875 145.3907012939453 153.06509399414062 140.58935546875 159.08316040039062 134.77098083496094 C 165.1519012451172 128.90342712402344 170.276611328125 122.04340362548828 173.8358917236328 114.3712387084961 C 178.01731872558594 105.3556900024414 179.76678466796875 95.60175323486328 179.80328369140625 85.70625305175781 C 181.5415802001953 85.69507598876953 183.2798614501953 85.68389892578125 185.01815795898438 85.67346954345703 C 184.98684692382812 96.49287414550781 183.02877807617188 107.16326904296875 178.3868865966797 116.98724365234375 C 174.3634033203125 125.50283813476562 168.54652404785156 133.08187866210938 161.67831420898438 139.5000457763672 C 154.9062042236328 145.82806396484375 147.02615356445312 150.94532775878906 138.34515380859375 154.23562622070312 C 121.07478332519531 160.7804718017578 100.66014099121094 160.44444274902344 83.67215728759766 153.1634521484375 C 67.54997253417969 146.25425720214844 53.77330780029297 132.83599853515625 46.285186767578125 116.98724365234375 C 41.643287658691406 107.16326904296875 39.685203552246094 96.49287414550781 39.653907775878906 85.67346954345703 C 39.653907775878906 85.67346954345703 39.653907775878906 85.67346954345703 39.653907775878906 85.67346954345703" stroke-width="0.0" fill="rgb(51, 51, 51)" opacity="1.0"/>
    <path d="M 52.021610260009766 190.3388214111328 C 92.00819396972656 190.3388214111328 131.9955291748047 190.3388214111328 171.98211669921875 190.3388214111328 C 171.98211669921875 192.07711791992188 171.98211669921875 193.81539916992188 171.98211669921875 195.55368041992188 C 131.9955291748047 195.55368041992188 92.00819396972656 195.55368041992188 52.021610260009766 195.55368041992188 C 52.021610260009766 193.81539916992188 52.021610260009766 192.07711791992188 52.021610260009766 190.3388214111328" stroke-width="0.0" fill="rgb(50, 50, 50)" opacity="1.0"/>
    <path d="M 36.37403869628906 83.41883850097656 C 86.79109191894531 83.41883850097656 137.20889282226562 83.41883850097656 187.62596130371094 83.41883850097656 C 188.1087646484375 83.51569366455078 188.6348114013672 83.48887634277344 189.0751495361328 83.70867919921875 C 190.68081665039062 84.51187896728516 190.68081665039062 87.54214477539062 189.0751495361328 88.34535217285156 C 188.6348114013672 88.56515502929688 188.1087646484375 88.538330078125 187.62596130371094 88.63519287109375 C 137.20889282226562 88.63519287109375 86.79109191894531 88.63519287109375 36.37403869628906 88.63519287109375 C 35.89122009277344 88.538330078125 35.36518859863281 88.56515502929688 34.924842834472656 88.34535217285156 C 33.319183349609375 87.54214477539062 33.319183349609375 84.51187896728516 34.924842834472656 83.70867919921875 C 35.36518859863281 83.48887634277344 35.89122009277344 83.51569366455078 36.37403869628906 83.41883850097656 C 36.37403869628906 83.41883850097656 36.37403869628906 83.41883850097656 36.37403869628906 83.41883850097656" stroke-width="0.0" fill="rgb(51, 51, 51)" opacity="1.0"/>
    <path d="M 112.0003662109375 153.82955932617188 C 112.0003662109375 153.82955932617188 112.0003662109375 153.82955932617188 112.0003662109375 153.82955932617188 C 113.93685150146484 154.21701049804688 114.2207260131836 154.50088500976562 114.60742950439453 156.43736267089844 C 114.60742950439453 168.60687255859375 114.60742950439453 180.7763671875 114.60742950439453 192.9458770751953 C 114.51131439208984 193.4287109375 114.53813171386719 193.95399475097656 114.31758880615234 194.39431762695312 C 113.51512908935547 196.0 110.48486328125 196.0 109.68240356445312 194.39431762695312 C 109.46186065673828 193.95399475097656 109.48867797851562 193.4287109375 109.39256286621094 192.9458770751953 C 109.39256286621094 180.7763671875 109.39256286621094 168.60687255859375 109.39256286621094 156.43736267089844 C 109.7800064086914 154.50088500976562 110.06388854980469 154.21701049804688 112.0003662109375 153.82955932617188 C 112.0003662109375 153.82955932617188 112.0003662109375 153.82955932617188 112.0003662109375 153.82955932617188" stroke-width="0.0" fill="rgb(50, 50, 50)" opacity="1.0"/>
    <path d="M 112.33491516113281 28.65345001220703 C 112.33491516113281 28.65345001220703 112.33491516113281 28.65345001220703 112.33491516113281 28.65345001220703 C 121.04498291015625 28.7532958984375 129.59112548828125 30.404403686523438 137.4368896484375 34.285560607910156 C 149.46035766601562 40.234336853027344 159.61441040039062 50.80861282348633 164.91868591308594 63.14203643798828 C 170.7728271484375 76.7540283203125 170.94345092773438 93.17202758789062 165.45962524414062 106.93080139160156 C 162.405517578125 114.59327697753906 157.5296630859375 121.39741516113281 151.58013916015625 127.08019256591797 C 146.7035369873047 131.7369842529297 141.08111572265625 135.60845947265625 134.87826538085938 138.27586364746094 C 127.7693862915039 141.33221435546875 120.05624389648438 142.72552490234375 112.33491516113281 142.72552490234375 C 104.61283111572266 142.72552490234375 96.90043640136719 141.33221435546875 89.79156494140625 138.27586364746094 C 83.58796691894531 135.60845947265625 77.96553802490234 131.7369842529297 73.08969116210938 127.08019256591797 C 67.13941955566406 121.39815521240234 62.264320373535156 114.59402465820312 59.210205078125 106.93228912353516 C 53.725624084472656 93.17500305175781 53.89624786376953 76.75701141357422 59.74890899658203 63.146507263183594 C 65.05242919921875 50.810848236083984 75.20796966552734 40.235084533691406 87.23219299316406 34.285560607910156 C 95.07795715332031 30.404403686523438 103.62484741210938 28.7532958984375 112.33491516113281 28.65345001220703 C 112.33491516113281 28.65345001220703 112.33491516113281 28.65345001220703 112.33491516113281 28.65345001220703" stroke-width="0.0" fill="rgb(51, 51, 51)" opacity="1.0"/>
    <path d="M 84.52751922607422 174.6905059814453 C 102.84324645996094 174.69125366210938 121.15972137451172 174.6927490234375 139.47544860839844 174.6934814453125 C 144.11138916015625 181.64663696289062 148.74806213378906 188.6005401611328 153.38473510742188 195.55368041992188 C 125.79640197753906 195.55368041992188 98.20732116699219 195.55368041992188 70.61898040771484 195.55368041992188 C 75.25491333007812 188.5990447998047 79.89158630371094 181.6451416015625 84.52751922607422 174.6905059814453" stroke-width="0.0" fill="rgb(51, 51, 51)" opacity="1.0"/>
    <path d="M 166.7627716064453 85.68985748291016 C 166.7627716064453 85.68985748291016 166.7627716064453 85.68985748291016 166.7627716064453 85.68985748291016 C 166.65101623535156 93.72562408447266 165.02896118164062 101.5855484008789 161.5918731689453 108.8747329711914 C 151.2798614501953 130.74526977539062 127.04740142822266 143.37896728515625 103.20983123779297 139.3562469482422 C 97.87054443359375 138.45542907714844 92.67355346679688 136.74769592285156 87.84017944335938 134.30752563476562 C 82.24755859375 131.48439025878906 77.1548843383789 127.68817901611328 72.84306335449219 123.1438980102539 C 68.18701171875 118.23600769042969 64.45413208007812 112.4653091430664 61.9036979675293 106.19912719726562 C 59.257896423339844 99.70121765136719 57.90630340576172 92.70410919189453 57.90630340576172 85.68985748291016 C 57.90630340576172 78.67486572265625 59.257896423339844 71.67849731445312 61.9036979675293 65.17984771728516 C 64.45413208007812 58.91366958618164 68.18701171875 53.142967224121094 72.84306335449219 48.23582458496094 C 77.1548843383789 43.6907958984375 82.24755859375 39.89532470703125 87.84017944335938 37.071441650390625 C 92.67355346679688 34.63203430175781 97.87054443359375 32.924293518066406 103.2090835571289 32.023475646972656 C 127.04740142822266 28.00000762939453 151.2798614501953 40.633697509765625 161.5918731689453 62.50424575805664 C 165.02896118164062 69.79417419433594 166.65101623535156 77.65409851074219 166.7627716064453 85.68985748291016 C 166.7627716064453 85.68985748291016 166.7627716064453 85.68985748291016 166.7627716064453 85.68985748291016" stroke-width="0.0" fill="rgb(51, 51, 51)" opacity="1.0"/>
    <path d="M 85.92381286621094 177.29830932617188 C 103.30892944335938 177.2998046875 120.69404602050781 177.30055236816406 138.0799102783203 177.30130004882812 C 141.55648803710938 182.5161590576172 145.0345458984375 187.73101806640625 148.51112365722656 192.9458770751953 C 124.1713638305664 192.9458770751953 99.83160400390625 192.9458770751953 75.49110412597656 192.9458770751953 C 78.96842956542969 187.7302703857422 82.44648742675781 182.513916015625 85.92381286621094 177.29830932617188" stroke-width="0.0" fill="rgb(51, 51, 51)" opacity="1.0"/>
    <path d="M 112.33491516113281 33.869056701660156 C 112.33491516113281 33.869056701660156 112.33491516113281 33.869056701660156 112.33491516113281 33.869056701660156 C 104.54204559326172 33.96815490722656 96.90341186523438 35.40617370605469 89.85712432861328 38.82537841796875 C 79.01238250732422 44.08867645263672 69.81278991699219 53.49613952636719 64.87063598632812 64.49661254882812 C 59.1602897644043 77.20406341552734 58.97998046875 92.7167739868164 64.308837890625 105.58219909667969 C 67.30484008789062 112.81549835205078 72.09500122070312 119.19344329833984 77.89326477050781 124.4224624633789 C 82.190185546875 128.29840087890625 87.08987426757812 131.49856567382812 92.44183349609375 133.71519470214844 C 98.7378158569336 136.322998046875 105.53376007080078 137.50991821289062 112.33491516113281 137.50991821289062 C 119.13532257080078 137.50991821289062 125.93201446533203 136.322998046875 132.2272491455078 133.71519470214844 C 137.57920837402344 131.49856567382812 142.47964477539062 128.29840087890625 146.7765655517578 124.4224624633789 C 152.57333374023438 119.19493103027344 157.36276245117188 112.81773376464844 160.35874938964844 105.58666229248047 C 165.68984985351562 92.72050476074219 165.5087890625 77.20704650878906 159.7991943359375 64.49734497070312 C 154.85702514648438 53.49613952636719 145.65744018554688 44.08867645263672 134.8126983642578 38.82537841796875 C 127.76641082763672 35.40617370605469 120.12702941894531 33.96815490722656 112.33491516113281 33.869056701660156 C 112.33491516113281 33.869056701660156 112.33491516113281 33.869056701660156 112.33491516113281 33.869056701660156" stroke-width="0.0" fill="rgb(231, 246, 248)" opacity="1.0"/>
    <path d="M 87.31936645507812 179.90536499023438 C 85.00065612792969 183.3834228515625 82.68268585205078 186.86074829101562 80.36397552490234 190.3388214111328 C 101.45515441894531 190.3388214111328 122.54707336425781 190.3388214111328 143.63824462890625 190.3388214111328 C 141.32029724121094 186.86224365234375 139.0023193359375 183.3849334716797 136.68360900878906 179.90835571289062 C 120.22911071777344 179.90760803222656 103.77386474609375 179.9068603515625 87.31936645507812 179.90536499023438" stroke-width="0.0" fill="rgb(254, 241, 182)" opacity="1.0"/>
    <path d="M 115.08428192138672 55.496700286865234 C 116.31368255615234 56.726097106933594 117.54307556152344 57.95548629760742 118.77172088623047 59.18562316894531 C 106.79444885253906 71.16140747070312 94.81716918945312 83.137939453125 82.83989715576172 95.11446380615234 C 81.61050415039062 93.88507080078125 80.38111114501953 92.65568542480469 79.15171813964844 91.42628479003906 C 91.12899017333984 79.44975280761719 103.10700988769531 67.47322845458984 115.08428192138672 55.496700286865234" stroke-width="0.0" fill="rgb(51, 51, 51)" opacity="1.0"/>
    <path d="M 133.62576293945312 55.496700286865234 C 134.85516357421875 56.726097106933594 136.08456420898438 57.95548629760742 137.31396484375 59.18562316894531 C 120.45710754394531 76.04247283935547 103.60025787353516 92.89932250976562 86.743408203125 109.75617218017578 C 85.5140151977539 108.52677917480469 84.28462219238281 107.2973861694336 83.05522918701172 106.0679931640625 C 99.91207885742188 89.21114349365234 116.76892852783203 72.35354614257812 133.62576293945312 55.496700286865234" stroke-width="0.0" fill="rgb(51, 51, 51)" opacity="1.0"/>
  </g>
</svg>
