<?xml version="1.0" ?>
<svg xmlns="http://www.w3.org/2000/svg" version="1.1" width="224" height="224">
  <defs/>
  <g>
    <path d="M 112.00040435791016 27.99999237060547 C 112.00040435791016 27.99999237060547 112.00040435791016 27.99999237060547 112.00040435791016 27.99999237060547 C 117.27239990234375 28.114395141601562 122.37720489501953 29.106399536132812 127.20039367675781 31.285598754882812 C 130.95399475097656 32.981590270996094 134.41880798339844 35.295196533203125 137.45559692382812 38.0751953125 C 156.04519653320312 55.09279251098633 155.5548095703125 86.63519287109375 136.2924041748047 102.94959259033203 C 133.15240478515625 105.60879516601562 129.599609375 107.78079223632812 125.78199768066406 109.31999969482422 C 121.41080474853516 111.08319091796875 116.71400451660156 111.99919891357422 112.00040435791016 111.99919891357422 C 107.28680419921875 111.99919891357422 102.59080505371094 111.08319091796875 98.2196044921875 109.31999969482422 C 94.40280151367188 107.78079223632812 90.8499984741211 105.60879516601562 87.71080017089844 102.94959259033203 C 68.44839477539062 86.63519287109375 67.95800018310547 55.09279251098633 86.54759979248047 38.0751953125 C 89.58360290527344 35.295196533203125 93.04840087890625 32.982391357421875 96.80120086669922 31.285598754882812 C 101.62440490722656 29.106399536132812 106.72840118408203 28.114395141601562 112.00040435791016 27.99999237060547 C 112.00040435791016 27.99999237060547 112.00040435791016 27.99999237060547 112.00040435791016 27.99999237060547" stroke-width="0.0" fill="rgb(25, 144, 167)" opacity="1.0"/>
    <path d="M 112.00040435791016 122.57759857177734 C 112.00040435791016 122.57759857177734 112.00040435791016 122.57759857177734 112.00040435791016 122.57759857177734 C 116.12920379638672 122.61279296875 120.24280548095703 122.81439208984375 124.34519958496094 123.30239868164062 C 127.66999816894531 123.69760131835938 130.97560119628906 124.25839233398438 134.24200439453125 124.99679565429688 C 136.8188018798828 125.57919311523438 139.37159729003906 126.27359008789062 141.88519287109375 127.08799743652344 C 155.86920166015625 131.6223907470703 172.55799865722656 141.4759979248047 173.55799865722656 157.88079833984375 C 174.64120483398438 175.6584014892578 156.62200927734375 186.71200561523438 141.88519287109375 191.4904022216797 C 139.37159729003906 192.30479431152344 136.8188018798828 192.9991912841797 134.24200439453125 193.58160400390625 C 130.97560119628906 194.3199920654297 127.66999816894531 194.88079833984375 124.34519958496094 195.2760009765625 C 120.25 195.76318359375 116.12440490722656 196.0 112.00040435791016 196.0 C 107.87640380859375 196.0 103.75160217285156 195.76318359375 99.65560150146484 195.2760009765625 C 96.33160400390625 194.88079833984375 93.0260009765625 194.3199920654297 89.75959777832031 193.58160400390625 C 87.18280029296875 192.9991912841797 84.6300048828125 192.30479431152344 82.11720275878906 191.4904022216797 C 67.38200378417969 186.71279907226562 49.358802795410156 175.65679931640625 50.44280242919922 157.88079833984375 C 51.44280242919922 141.47679138183594 68.13400268554688 131.6223907470703 82.11720275878906 127.08799743652344 C 84.6300048828125 126.27359008789062 87.18280029296875 125.57919311523438 89.75959777832031 124.99679565429688 C 93.0260009765625 124.25839233398438 96.33160400390625 123.69760131835938 99.65560150146484 123.30239868164062 C 103.75800323486328 122.81439208984375 107.87159729003906 122.61279296875 112.00040435791016 122.57759857177734 C 112.00040435791016 122.57759857177734 112.00040435791016 122.57759857177734 112.00040435791016 122.57759857177734" stroke-width="0.0" fill="rgb(25, 144, 167)" opacity="1.0"/>
    <path d="M 145.6020050048828 70.00079345703125 C 145.6020050048828 70.00079345703125 145.6020050048828 70.00079345703125 145.6020050048828 70.00079345703125 C 145.472412109375 76.08079528808594 144.25559997558594 81.98239135742188 141.50201416015625 87.43920135498047 C 139.406005859375 91.59039306640625 136.52760314941406 95.34959411621094 133.01560974121094 98.4031982421875 C 129.9604034423828 101.05839538574219 126.43159484863281 103.16959381103516 122.62040710449219 104.54319763183594 C 119.71800231933594 105.589599609375 116.66360473632812 106.20479583740234 113.58200073242188 106.35919189453125 C 93.48040008544922 107.36479949951172 78.40119934082031 89.19999694824219 78.40119934082031 70.00079345703125 C 78.40119934082031 50.80159378051758 93.47959899902344 32.63519287109375 113.58200073242188 33.64080047607422 C 116.66360473632812 33.794395446777344 119.71800231933594 34.41039276123047 122.62040710449219 35.45599365234375 C 126.43159484863281 36.83039855957031 129.9604034423828 38.9407958984375 133.01560974121094 41.59679412841797 C 136.52760314941406 44.64958953857422 139.406005859375 48.40959930419922 141.50201416015625 52.56159210205078 C 144.25559997558594 58.01839065551758 145.472412109375 63.91999816894531 145.6020050048828 70.00079345703125 C 145.6020050048828 70.00079345703125 145.6020050048828 70.00079345703125 145.6020050048828 70.00079345703125" stroke-width="0.0" fill="rgb(25, 144, 167)" opacity="1.0"/>
    <path d="M 168.00039672851562 159.28720092773438 C 168.00039672851562 159.28720092773438 168.00039672851562 159.28720092773438 168.00039672851562 159.28720092773438 C 167.6083984375 171.12399291992188 157.17799377441406 178.99200439453125 147.2427978515625 183.46719360351562 C 126.77400207519531 192.68719482421875 100.72840118408203 192.89999389648438 79.88279724121094 184.777587890625 C 69.21640014648438 180.62158203125 56.00040054321289 172.24720764160156 56.00040054321289 159.28720092773438 C 56.00040054321289 146.32879638671875 69.21720123291016 137.9552001953125 79.88279724121094 133.8000030517578 C 100.72840118408203 125.67919921875 126.77400207519531 125.89119720458984 147.2427978515625 135.10958862304688 C 157.17799377441406 139.58399963378906 167.6083984375 147.45120239257812 168.00039672851562 159.28720092773438 C 168.00039672851562 159.28720092773438 168.00039672851562 159.28720092773438 168.00039672851562 159.28720092773438" stroke-width="0.0" fill="rgb(25, 144, 167)" opacity="1.0"/>
    <path d="M 112.00040435791016 39.20079803466797 C 112.00040435791016 39.20079803466797 112.00040435791016 39.20079803466797 112.00040435791016 39.20079803466797 C 108.31320190429688 39.31439208984375 104.78199768066406 39.959190368652344 101.39960479736328 41.47999572753906 C 81.0780029296875 50.62079620361328 78.40679931640625 80.4159927368164 94.93800354003906 94.4263916015625 C 97.28040313720703 96.41119384765625 99.94599914550781 98.01679992675781 102.81639862060547 99.11039733886719 C 105.74440002441406 100.22639465332031 108.86680603027344 100.80159759521484 112.00040435791016 100.80159759521484 C 115.13400268554688 100.80159759521484 118.2572021484375 100.22639465332031 121.1852035522461 99.11039733886719 C 124.05640411376953 98.01679992675781 126.72200012207031 96.41119384765625 129.06439208984375 94.4263916015625 C 145.59719848632812 80.4159927368164 142.92440795898438 50.619998931884766 122.60279846191406 41.47999572753906 C 119.2196044921875 39.959190368652344 115.68840026855469 39.31439208984375 112.00040435791016 39.20079803466797 C 112.00040435791016 39.20079803466797 112.00040435791016 39.20079803466797 112.00040435791016 39.20079803466797" stroke-width="0.0" fill="rgb(143, 223, 238)" opacity="1.0"/>
    <path d="M 112.00040435791016 133.7783966064453 C 112.00040435791016 133.7783966064453 112.00040435791016 133.7783966064453 112.00040435791016 133.7783966064453 C 98.39320373535156 133.9055938720703 83.87159729003906 136.27040100097656 72.30039978027344 143.89520263671875 C 67.07319641113281 147.33999633789062 61.59960174560547 152.54879760742188 61.59960174560547 159.28720092773438 C 61.59960174560547 166.0279998779297 67.07160186767578 171.2384033203125 72.30039978027344 174.68399047851562 C 83.802001953125 182.26318359375 98.44760131835938 184.80081176757812 112.00040435791016 184.80081176757812 C 125.55400085449219 184.80081176757812 140.20120239257812 182.26400756835938 151.70361328125 174.68399047851562 C 156.9315948486328 171.23919677734375 162.400390625 166.02560424804688 162.400390625 159.28720092773438 C 162.400390625 152.5511932373047 156.92999267578125 147.33920288085938 151.70361328125 143.89520263671875 C 140.131591796875 136.2696075439453 125.60840606689453 133.9055938720703 112.00040435791016 133.7783966064453 C 112.00040435791016 133.7783966064453 112.00040435791016 133.7783966064453 112.00040435791016 133.7783966064453" stroke-width="0.0" fill="rgb(143, 223, 238)" opacity="1.0"/>
  </g>
</svg>
